<svg xmlns="http://www.w3.org/2000/svg" viewBox="0 0 298.45 631.13"><g id="Layer_2" data-name="Layer 2"><g id="_ÎÓÈ_1" data-name="—ÎÓÈ 1"><path d="M101.8,349c-.68-8.76,2-16.73,5.6-24.46,4-8.61,8.17-17.17,12.25-25.75a118,118,0,0,0,11.48-49q.35-19,.24-38c-.07-11.15.65-22.16,3.78-32.93.74-2.53,2-5.1,2-7.64-.12-15.34,6.68-28.58,12.24-42.24,2.38-5.86,4.58-11.83,6.37-17.9a55.89,55.89,0,0,0,1.52-10.93c.94-11.32-9.22-17.88-20.14-13.7-20,7.67-29.55,22.72-34.23,42.2-1.23,5.13-2,10.36-3.15,15.52a44,44,0,0,1-12,21.94c-2.4,2.43-28.64,16.47-31.85,16.58a27.23,27.23,0,0,1-7.79-.84A51.41,51.41,0,0,1,28.39,172C12.47,159,4.2,141.28.63,121.84c-2.66-14.51,3.5-28.26,11-40.51C18.78,69.66,27.51,59,35.38,47.73,39.13,42.39,44.54,39,49.49,35.1c11.16-8.72,22-17.89,35.21-23.78,7.87-3.51,16-4.91,24.22-6.95,28.39-7.1,56.62-4.47,84.89.3A31,31,0,0,1,200,5.92c16.14,6.39,33,10.85,48.42,19.23,20.37,11.06,34.65,27.36,44.09,48.12,2.14,4.72,2.85,10.11,4,15.23.47,2,.24,4.23.59,6.31,5.44,32-6.59,58.93-24.49,84.19-5,7-11.76,12-18.27,17.4C241,207.48,226.69,217.48,214.44,230c-12.67,13-20.7,27.85-22.36,46-1.21,13.14-2.1,26.31-3.5,39.43-1.23,11.55-2.85,23.05-4.53,34.54-2.66,18.17-13.26,29.49-30.78,34.22a78,78,0,0,1-17.14,2.56c-18.64.75-29.71-8.28-33.27-26.79C102.17,356.36,102.13,352.64,101.8,349Zm55.65-41.8-3.95-3.91c.87-7.36,4.11-12.93,11.48-15.54A17.09,17.09,0,0,0,169,285.4c1.58-1.11,1.1-4.75-.78-5.22-4-1-8.28-1.11-11.58-4.32-3.54-3.45-3.11-9.7,1.06-12.32a14.73,14.73,0,0,1,9.09-2c5.1.33,8-2.42,9-7a52.65,52.65,0,0,1,11.39-22.28,245.16,245.16,0,0,1,53.85-48.13c2.61-1.71,5.61-3,7.74-5.22,24.63-25.27,37.89-66.15,20.72-101.65l.18.4c-5.53-16.87-19-26.48-33.33-34.44-31.23-17.39-65.2-24-100.71-21.28-12,.9-24.16,2.83-35.56,7.3C66.6,42.43,43.22,66.67,26.47,97.81c-4.54,8.45-7.63,17.87-4.55,27.44,3.88,12,8.66,23.89,19.41,31.9,6.83,5.09,13.67,5.44,20.24-.21,10.15-8.74,17.93-19.09,20.19-33,1.26-7.74.38-13.6-8.18-16a8.43,8.43,0,0,1-2.68-1.64,7,7,0,0,1-1.26-9.83c2.3-3.14,5.27-5.73,9.3-4.72,6.85,1.7,9.56-2.21,11.79-7.47,2.75-6.46,6.82-11.72,13.15-15.27,10.69-6,22.06-10.8,34-12.44,22.51-3.09,36.52,3.91,42.79,23.13s6.86,38.86-5.13,56.23c-9,13-10.11,28.71-17.38,42.13-1.36,2.52-.11,5.22,2.66,6.53,1.89.9,4.13,1.12,5.94,2.13,3.82,2.14,6.21,7,5.3,10.55-1,4-4,6-7.67,7.29a20,20,0,0,1-3.13.43c-9.41,1.6-9.71,1.86-10.16,10-.14,2.63,0,5.27,0,7.91.47,23.83-.89,47.45-7.8,70.47a14.36,14.36,0,0,0-.79,4.64,4.79,4.79,0,0,0,3.47,4.7,12.17,12.17,0,0,0,7.75.25l4,3.91C153,322.24,152.93,322.28,138,317c-2.41-.85-4.44-.32-5.49,1.54-6.26,11-12.91,21.84-10.57,35.58,1.82,10.66,4.89,13.71,15.57,13.22,5.35-.24,10.55-1.32,14.77-4.84a4.77,4.77,0,0,0,1.4-4.08,4.57,4.57,0,0,0-3.39-2.69c-3.65.09-7.29,1.35-10.91,1.23-5.12-.17-8.9-6.32-7.78-11.75.76-3.73,5.34-5.54,10.45-3.95a30.11,30.11,0,0,1,4.18,2.23,4.4,4.4,0,0,0,4.43.16c9.68-5,18.34-10.71,16.65-23.73a39.81,39.81,0,0,1,.12-4.75C167.37,308.21,166.84,307.79,157.45,307.18Z"/><path d="M187.23,483.2c-.11,1.08-.21,3.72-.66,6.31-1,5.93.14,11.33,2.55,16.86,4.41,10.13,8,20.59,12.22,30.82,3,7.41,4.23,15.16,5.39,23,3.2,21.53-5.26,38.47-21.39,51.44-15.05,12.11-32.39,19.83-52.29,19.49A67.49,67.49,0,0,1,88.5,613.49c-9.65-8.57-12.71-20.92-12.65-33.1.07-13.55.51-27.23,5.93-40.38,4.69-11.38,10.4-22.09,18.76-30.77,9.65-10,12.19-20.44,6.89-33.07-.6-1.44-.65-3.12-1.27-4.56-5.77-13.47.32-24.63,7.06-35.54,2.59-4.2,7-6.31,11.7-7.53,11.53-3,23.12-3,34.27,1.12,16,5.84,23.23,19.1,26.71,34.67C187.14,469.92,186.77,475.86,187.23,483.2Zm-66.37,34.3c3.51-1.1,6.94-2.67,10.53-3.2a9.15,9.15,0,0,1,9.94,6.08c1.27,4.1-.62,6.62-3.81,9.33q-8.78,7.45.23,13.76c4,2.79,7.64,5.53,9.75,10s4.88,5.37,10,5.19c10.05-.36,13.67,5.67,10.56,15.42-.31,1-1.32,1.82-1.37,2.77a2.64,2.64,0,0,0,1.52,2.07,8.46,8.46,0,0,0,7.27-2.15c1.84-1.6,2.36-4,1.1-5.69-8.94-12.23-12.1-27.84-23.35-38.82-6-5.86-3.61-12.17,5.15-14.74,3-.88,4.85-1.57,4.46-4.94-.35-3.06-.09-6.29-4.42-7.19A46.75,46.75,0,0,1,148,501.89a6.65,6.65,0,0,1-3.62-6.58,7.63,7.63,0,0,1,5.43-7.08c2.39-.69,5.18-.38,7.72,0s4.25,3.17,7.79,1.87c4.61-7.3,3.32-15.79,2.51-24-.48-4.81-3.81-8.59-7.26-11.93a3.46,3.46,0,0,0-2.79-.76,2.86,2.86,0,0,0-1.79,2.06c.11,2.61.8,5.19.93,7.8.23,4.58-1.35,8.38-5.86,10.18-4.75,1.9-9.18,1.53-13.09-2.32-4.12-4.06-4.43-8-1.22-12.58,2.06-2.95,6.75-3.48,7.15-8.05-4.49-2.76-9.34-2.75-13.34.14-4.51,3.25-6,8.56-5.67,14.06a43.39,43.39,0,0,0,2,9.23c4.63,15.51,2.63,30.12-5.63,44.05-4.1,4.8-8.11,9.68-12.32,14.39a30.22,30.22,0,0,0-7.37,13.77c-.94,4.28.25,8.85,2.78,10,3.58,1.57,6.05-.83,8.26-3,2.5-2.42,7.37-3.91,5.93-8.4-2-6.24-.08-11.32,2.74-16.55C123.21,524.63,122.14,521,120.86,517.5Z"/><path d="M122.63,29.87A8.4,8.4,0,0,1,131,36.59a7.61,7.61,0,0,1-5.31,8.59c-1.51.38-3.26.86-4.66.46-4.7-1.38-8,.32-11.25,3.65a13.69,13.69,0,0,1-13.06,3.92c-6-1.19-8.35-7.08-4.64-12,2.64-3.52,6-6.61,10.54-5.9,6.24,1,11.27-.8,16.11-4.42C119.87,30,121.73,30.08,122.63,29.87Z"/><path d="M236.76,161.08c-4.58.37-8.56-4.52-8.82-10.84-.2-4.9,4.22-9.64,9.72-10.42,4.47-.64,9.13,3.37,9.55,8.22C247.82,154.91,243.29,160.55,236.76,161.08Z"/><path d="M189.79,176.87c5.72,0,8.87,3.07,9,7.82.16,4.52-2.93,8.39-7.14,8.8a10.18,10.18,0,0,1-10.47-5.36c-2.41-4-.89-8.67,3.54-10.13A42,42,0,0,1,189.79,176.87Z"/><path d="M49.92,103.88c5.2.05,8.87,3.58,8.95,8.63.1,5.67-4.26,10.07-9.65,9.77-4.72-.28-8.39-5.47-8.06-11.42C41.38,106.9,45.21,103.84,49.92,103.88Z"/><path d="M183.82,223.79c-.11,5.07-3.8,8.5-9.28,8.64-5.16.14-8.6-3.67-8.29-9.19s4-9,9-8.82A8.86,8.86,0,0,1,183.82,223.79Z"/><path d="M88.71,65c0,4.12-3.75,7.5-8.46,7.62a9.63,9.63,0,0,1-9.8-10,7.66,7.66,0,0,1,8.21-7.67C84.5,55.23,88.71,59.46,88.71,65Z"/><path d="M64.19,84.69C64,89.54,61,93.06,57,93.38c-4.25.33-10-5.27-10.17-9.86-.12-3.94,5.08-8.55,9.5-8.42C61,75.24,64.45,79.48,64.19,84.69Z"/><path d="M230.54,68.91c-.2,5.62-3.54,9.07-8.57,8.87-5.69-.23-9.23-3.72-8.73-8.6.59-5.79,4.93-9.58,10.45-9.11C227.75,60.42,230.71,64.23,230.54,68.91Z"/><path d="M269.56,77.31c-4.15,2.22-5.91,7.35-11,8.61-3.3.82-6.18,1.34-8.4-1.85-2.88-4.13-3.22-8.54-.78-11.72,2.17-2.84,5.15-3.34,8.47-2.47,4.78,1.25,8.22,4.55,11.81,7.76C269.74,77.71,269.56,77.31,269.56,77.31Z"/><path d="M70.36,136.89c-.07,4-3.84,7.36-8.35,7.52-5.6.2-9.41-3.9-9.27-9.95a7,7,0,0,1,7.07-6.7C65.67,127.84,70.45,132,70.36,136.89Z"/><path d="M218.7,176.92c-5.2-.38-9.65-4.94-8.84-9.07s5.71-8.09,10.31-8.27c3.92-.15,7.56,4,7.43,8.49C227.44,173.44,223.58,177.28,218.7,176.92Z"/><path d="M206.06,90.85c0,3.93-3.79,7.87-7.9,8.26-4.47.43-8.84-4-8.8-8.83s4.3-8.4,9.43-8.11C202.57,82.38,206.09,86.59,206.06,90.85Z"/><path d="M255.1,105.36a9,9,0,0,1-9.68,7.92c-5.29-.33-9.26-4.35-8.68-8.78.65-4.9,5.93-8.56,11.45-7.93A8.21,8.21,0,0,1,255.1,105.36Z"/><path d="M184.21,38.11a7.77,7.77,0,0,1,8,7.79c.17,4.85-2.68,8.79-6.6,9.11-5,.42-9.67-4.19-9.91-9.84C175.5,41.18,179.34,38,184.21,38.11Z"/><path d="M218.36,130c-.15,4.42-5,8.19-9.83,7.65a8.31,8.31,0,0,1-7.15-8.63,8.19,8.19,0,0,1,8.14-7.69A8.49,8.49,0,0,1,218.36,130Z"/><path d="M164.65,39.21c0,4.15-4,7.56-8.35,7.28A8,8,0,0,1,149,38.13a8.21,8.21,0,0,1,8.43-7.38C161.5,30.93,164.7,34.67,164.65,39.21Z"/><path d="M189.5,157.31c.4,4.53-2.6,8.46-6.73,8.83s-8.7-3.22-8.83-6.91,3.66-7.52,8-7.91A6.81,6.81,0,0,1,189.5,157.31Z"/></g></g></svg>