<svg xmlns="http://www.w3.org/2000/svg" viewBox="0 0 544.77 370.97"><g id="Layer_2" data-name="Layer 2"><g id="_ÎÓÈ_1" data-name="—ÎÓÈ 1"><path d="M460.69,320.08c4.41,0,8.7.06,13,0,3.17-.06,4.51,1.36,4.49,4.52-.07,10,0,20,0,30.81H353.66c-7.69,0-7.7,0-7.73,7.83,0,2.46,0,4.93,0,7.75H198.24c0-3.5-.17-6.8,0-10.07.28-4.15-1.48-5.61-5.55-5.56-13.16.14-26.33.05-39.49.05H66.06c0-8.08,0-15.84,0-23.59.08-13.18-1.63-11.63,11.71-11.73h4.44V60.22c-6.47,0-12.76-.13-19,.05C59.33,60.39,57.66,59,57.9,55a54.64,54.64,0,0,0,0-10c-1-8,2.85-13.54,9.57-16.4,11-4.67,22.12-9.32,33.64-12.3,33.49-8.68,67.84-11.9,102.28-14.12a1066.43,1066.43,0,0,1,138.36,0c36.76,2.42,73.4,6,109,16.05,9.06,2.56,17.79,6.51,26.35,10.51,6.47,3,10.24,8.31,9.22,16.11a66.71,66.71,0,0,0-.08,8.49c0,6.81-.05,6.81-7.1,6.81H460.69ZM440,79.62h-5.33q-162.94-.06-325.9-.2c-4.9,0-6.43,1.16-6.41,6.35q.54,114.72.65,229.45c0,1.45.2,2.9.31,4.46H440ZM316.11,69.55l-5.45-4.87v9.78ZM124.83,64.83v9.72l5.34-5C128.31,67.89,126.88,66.62,124.83,64.83ZM88,133.43H98.15l-5.39-5.13Zm9.77,59.34H87.88l4.86,5.36Zm-1.17,71,.62-1.15-4.53-4.49-4.73,5.64ZM217.62,74.59l5.31-5-5.31-4.79Zm33.87-10.18-5.43,5.27,5.43,4.52ZM92.64,221.15l-4.49,5.35h9.43C95.65,224.4,94.36,223,92.64,221.15ZM96.52,77.91l.72-1.28L92.89,72.3l-5.1,5.61Zm301.35-1.33-5.27-4.77-5,4.77ZM170.22,72.27,165,76.42h9.78Zm206-2.56,5.11,4.59V65ZM180.41,74.52l5.54-5-5.54-4.79Zm244.24,2h10.23l-5.08-4.84Zm-212.92.14-4.21-4-6.26,4ZM127,76.42h10.53l-5-4.48Zm-8-13.6H108.61l5.18,4.7Zm-26.2,42.43,4.41-5.17H88ZM351,75.55l.85.9h8.59l-5-4.52Zm-50.25-2.66-6.23,3.62h9.74Zm-208,92.62-4.52,5.17h9.45ZM344.37,64.43l-5.3,5,5.3,4.76ZM114.73,72.81l-6,3.53h10.06ZM96.65,301,93,295.14,88,301Zm3.24-13.2-5.09,5.64,5.09,4.74ZM88,285.8l4.67,5.08,4.7-5.08ZM267.38,62.89h-9.77l4.85,4.63Zm18.68-.06H275.91l5.24,4.68Zm122.87,6.62-5.44-4.59v9.58ZM95.3,274.78l4.43,5.06v-9.78ZM336.53,67.1,342,62.87H332Zm23.85-4.23h-9.45l4.16,4.87ZM455.69,301l-5.45-5.57-5,5.57ZM99.62,261.2V250.88L94.75,256Zm345.87-34.73h9.35l-4.71-5.16ZM95.2,218.75l4.49,5.07v-9.89ZM410.78,67.27l4.89-4.52h-10Zm-311,138.5V195l-4.9,5.62ZM243.9,67.52l5-4.65H239Zm203.81,96-1.46.44L444,158.77l-.48.77v8.6Zm-190-87h8.74l-3.49-5Zm-158,92V158.19c-2,2.08-3.23,3.44-4.71,5Zm0,148.53V306.85c-1.94,2.1-3.22,3.47-4.72,5.08C96.48,313.57,97.76,315,99.67,317ZM99.58,75.64V65.24l-4.93,5.37Zm59-9.49-1.25-.84-4.07,4.33,5.32,4.44Zm-2.43-3.48H146l5,4.74ZM288.41,74.16V64.52l-5.14,5Zm161.8,49.65,4.56-5.24h-9.44Zm-4.94-8.89h8.93l-4.1-5.3Zm-346.6-3,1-.68v-8.88l-4.66,5Zm-3.43,14.41,4.51,4.88v-9l-.87-.61Zm350-48.5h9.91l-5.1-5.26Zm9.22,78.74-.51-.87H445.4l4.13,4.5ZM194.63,74.05l1-.87V65l-4.93,4.45C192.21,71.17,193.42,72.61,194.63,74.05ZM136.87,63.79l-.78-1h-8.66l5.13,4.86Zm55.8-.1-.77-.9h-8.56l4.87,4.54ZM206.15,67l5.29-4.18h-9.66Zm249,252.51-5-5.29-4.73,5.29Zm-357.52,0-4.84-5.23-4.67,5.23ZM446,304.44l4.11,5.48,4.63-5.48ZM224.24,66.87l6-4.08H219.88Zm128.88,2.76L348,64.79V74.4ZM443.4,288.05v10.31L448,293ZM273.57,65v9.57l5.1-4.86Zm25.74,2.38,5.63-4.63h-10C296.71,64.6,297.89,65.85,299.31,67.33Zm23.89-4.45h-9.67l4.78,4.53Zm132,200.92-5.09-5.41-4.94,5.41ZM87.94,118.47l4.72,5.44,4.89-5.44ZM227.58,69.58l5.13,4.61V64.82ZM92.76,68l4.58-5.17H88.15Zm275.87,8.51h10.2l-5.31-4.94Zm-.09-13.81L373.3,67,379,62.67Zm81.54,177.05-4.66,5.1h9.33ZM99.82,232.33,95.39,237l4.43,6Zm350.33-15.64,4.58-5H445.5ZM99.74,187V176.69l-4.81,5.15ZM143.5,64.81v9.64l5.15-4.85ZM450.15,165.53l-4.51,5.17h9.44ZM220.85,75.58l.78.82h8.71l-4.9-4.28Zm18,.94H249l-4.72-5Zm74.34,0h10.1l-5-4.77ZM92.83,160.93l4.42-5.17H88.19ZM455,62.83H444.7L450.07,68C451.85,66.11,453.14,64.75,455,62.83Zm-9.24,144.89h8.87l-4.26-5.38ZM95.11,144.46l4.55,5.12V139.42C97.66,141.64,96.38,143,95.11,144.46Zm359.47-63h-9l4.63,5C451.71,84.75,452.86,83.43,454.58,81.47ZM166.11,62.61l-.86.86,4.42,3,4.88-3.87ZM454.84,100h-9.36c1.92,2,3.16,3.36,4.67,4.95Zm-.13,52.1L450,146.93l-4.24,5.18Zm-.26-18.52-4.12-5.6-4.73,5.6Zm-1.36,158.74,3.78,5.64v-9.66ZM276.1,76.44h9.81l-4.8-4.53ZM454.39,285.91h-9l4.54,5.33ZM450,276.83l-4.53,5.29h9.21ZM390.3,69.68,385,64.79v9.62Zm23.22-.14,5.1,4.67V65Zm-6.79,5.9.9,1h8.53l-5.27-4.9Zm-69.8-3.62-5.17,4.69h10.13Zm117.67,177h-8.89l4.3,4.83ZM156.14,76.53l-4.67-4.37-5,4.37Zm231.09-14,5.54,5c1.59-1.73,2.77-3,4.56-5Zm37.65.23c2.06,1.95,3.33,3.16,4.85,4.62l5-4.62ZM445.3,192.86l4.83,5.13,4.79-5.13ZM193.18,76.62l-4.15-4-5.71,4Zm-105,131.25h9.41l-4.85-5.23ZM95.58,88.28c1.2,1.79,2.3,3.44,3.4,5.1l.73-.88V84.81l-1-.68ZM93,216.59c1.52-1.79,2.72-3.21,4.18-4.91H87.47Zm74.44-147-5.29-4.85v9.52Zm275.79,154.8,4.24-4.91-4.24-5.66ZM325.78,64.79l-5.12,4.87,5.12,4.62Zm8.88,4.79L329.29,65V74.3Zm-242,170.26L88,244.93H97.5Zm0-130.11-4.87,5.13h9.61Zm329.46-45v9.65l5.24-4.94Zm26.39,5.54-5.24-5.25v9.11Zm-5.23,135.08,4.87-4.56-4.87-5.36Zm13.7-9.55c-5.52,4.8-5.51,4.95,0,8.59ZM236.25,74.39c2.17-1.91,3.56-3.15,5.31-4.7l-5.31-4.77Zm207,242.79,4.3-4.81c-1.45-1.79-2.63-3.22-4.3-5.27ZM89.14,304.35l-.48,1,4.38,4,4.43-5Zm9-74.18h-9.9l4.32,4.93ZM366.5,65.2v9.13l5-4.73C369.8,68.11,368.42,66.9,366.5,65.2Zm76.82,177.26,4.13-4.55c-1.4-1.8-2.45-3.15-4.13-5.29Zm0-131.72,4.41-3.55L443.31,102Zm.2,10.38v9.77l4.43-4.89C446.52,124.45,445.33,123.13,443.51,121.12Zm13.34-9.2v-9.39L452.78,107Zm-6.7,67.65,4.34-5.1h-8.67ZM176.92,65.08,172,69.67l4.91,4.18Zm280,196V250.84c-2,2.16-3.22,3.54-4.65,5.13Zm-13.54-9.84v9.68l4.67-5.33ZM264.77,69.62l5.17,4.79V65.16ZM92.68,272.29,97,267.54H88.19Zm-4.32-97.91,4.39,5.08c1.5-1.7,2.78-3.13,4.51-5.08Zm359.73,100.5-4.63-5v9.23Zm8.75,4.43V269.5L452,275.05Zm-9.56-96.66-4-6.14v9.78C445.18,184.58,446.55,183.33,447.28,182.65Zm-359.82,66,5.41,4.9,4.17-4.9ZM399.91,65l-5.1,4.73,5.1,4.23ZM139.63,74v-8.6c-2,1.61-3.44,2.78-5.09,4.13ZM92.7,276.86l-4.63,5.29h9.26ZM121,73.92V65.43l-5.12,4.18ZM452.28,237.54l4.56,4.77v-9.63Zm-346-164.49,5.32-3.44-5.32-4.42Zm350.65,57.84v-9l-4.83,3.74C453.73,127.46,455,128.81,456.89,130.89ZM214.15,66.14l-1.22-.83-3.88,4.42,5.1,4.48ZM97.28,81.45h-9.1l4.55,5ZM362.74,74.2V65l-5,4.69ZM88.21,152.05h9.24l-4.73-5.13Zm368.93,24.8c-1.89,2.22-3.14,3.67-3.5,4.09l2.76,5.18.74-.63ZM199.41,65.22v9.12l5.12-4.57ZM92.75,184.09l-4.53,5.15h9.12Zm353-88h8.91l-4.36-5.35Zm11,127.75V214l-4.34,5ZM255,74.59l5.21-5L255,65.08Zm197,237,4.9,4.93V307ZM92.74,91l-4.53,5.13h9ZM456.8,93.68V83.81c-1.93,2.12-3.13,3.45-4.5,5ZM443.5,83.9v9.71l4.4-4.84ZM88.22,137.23l4.56,5.06,4.48-5.06Zm368.92,2.36-4.05,4.29,4.05,6.05ZM301.9,69.65l5,4.56V65.15Zm141.44,70v9.91l4.65-4.94C446.53,143.11,445.27,141.76,443.34,139.69ZM292.44,65.12v9l4.93-4.48Z"/><path d="M64.07,354.44H0V244.36H8.38c17.15,0,34.29,0,51.44,0,2.74,0,4.77,0,4.76,3.79-.1,34.79,0,69.58-.07,104.37A11.4,11.4,0,0,1,64.07,354.44ZM54.25,322c1.3-10.58-7.77-21.27-19.93-21.21-11.12.05-21.25,8.66-20.66,19,.51,9.12,6.73,20.78,20.2,20.87C43.52,340.71,56,332.19,54.25,322ZM6.42,284.56a12.91,12.91,0,0,0,13,13.31,13.58,13.58,0,0,0,13.41-13.18c.07-6.72-6.17-13-13-13.05C12.14,271.56,6.55,277,6.42,284.56ZM34.53,350c6.33,0,12.66.15,19-.12,1.28-.05,2.49-1.65,3.73-2.54-1.21-.73-2.42-2.08-3.64-2.1q-19.23-.22-38.47,0c-1.19,0-2.36,1.45-3.54,2.23,1.15.84,2.28,2.36,3.46,2.41C21.53,350.15,28,350,34.53,350Zm12.65-94.57a7.86,7.86,0,0,0-7.68,7.62c0,4,4.19,8,8.19,7.81a8,8,0,0,0,7.23-8.07A7.41,7.41,0,0,0,47.18,255.46Z"/><path d="M544.27,354.79H480V245.12c1.32-.12,2.59-.34,3.86-.35,18.65,0,37.29.07,55.93-.08,3.51,0,5,.64,5,4.6-.16,33.79-.1,67.57-.13,101.36C544.64,352,544.42,353.24,544.27,354.79Zm-35.59-53.67c-10.59,0-18.76,8.7-18.74,19.82,0,12.94,8.43,20,20,20.28,10.18.21,20.65-10.18,20.7-19.83C530.71,309.94,521.11,301.08,508.68,301.12Zm16.18-3.3c8.07-.16,13.07-5.25,12.9-13.15-.15-7-6.56-13.39-13.09-13.08-7,.35-13.55,7.16-13.27,13.79A13.16,13.16,0,0,0,524.86,297.82Zm-15.23,52.43v0c6.66,0,13.33.1,20-.1,1,0,2-1.49,3-2.29-1-.81-2-2.32-3-2.33q-19.73-.25-39.47,0c-1.07,0-2.12,1.72-3.18,2.63,1.07.71,2.12,2,3.21,2C496.63,350.35,503.13,350.25,509.63,350.25Zm-20.35-87.37a7.55,7.55,0,0,0,7,8.11,8.09,8.09,0,0,0,8.46-7.43c.18-3.73-3.54-7.7-7.51-8S489.48,258.81,489.28,262.88Z"/><path d="M430.67,124.7c-12.39,2.49-24.64,1.28-36.51-2.4-20.88-6.47-41.65-5.42-62.62-.67-22.43,5.08-45,9.25-68.19,8.63-18.92-.51-37.41-3.89-55.67-8.49-20-5-39.71-5.29-59.62.69-11.7,3.52-23.77,5.14-36,1.8C104,122,104,122.05,104,113.92V81.5h335.1c0,2.73,0,5.64,0,8.55,0,8.33-.35,16.68.14,25,.29,4.89-1.36,7.44-5.93,8.52a14.4,14.4,0,0,0-2.7,1.22Z"/><path d="M109.16,198.27c6.24-7.71,9.25-17,10.56-26.42,1.65-12,1.85-24.12,2.6-36.2.17-2.61,0-5.24,0-8.19l11.54-.65a75.57,75.57,0,0,1,1.84,24c-.95,14-6.26,26.75-11.39,39.55-.67,1.67-1,3.47-1.55,5.2l.16-.16c-2.61,10.21-5.92,20.29-7.71,30.64-3.66,21.22-1.13,42.44,1.35,63.61A163.72,163.72,0,0,1,117.77,306c.13,8.64-2.32,10.84-11.86,10.95-.14-1.55-.4-3.14-.42-4.73-.53-34.1-1.22-68.21-1.3-102.32,0-3.94,3.35-7.89,5.15-11.83Z"/><path d="M413.79,179.59c-6.76-16.88-9-34.23-5.48-52.38h11.77c0,2.76-.15,5.2,0,7.61,1,13.2,1.92,26.41,3.14,39.59.18,1.88,1.78,3.64,2.73,5.45.35,1.69.71,3.38,1.06,5.07a34.17,34.17,0,0,0,10.14,18.39l-.17-.09c.57,2,1.66,4.05,1.64,6.06q-.7,52.43-1.64,104.83c0,.82-.12,1.63-.17,2.4-8,1.41-12.32-1.61-11.87-9.3.87-14.93,2.42-29.82,3.6-44.74a169.91,169.91,0,0,0-4.51-54,11.45,11.45,0,0,0-1.07-2.2Z"/><path d="M413.79,179.59,423,206.32c1.38,9.35,3,18.68,4.11,28.07,2.29,18.85-.59,37.51-2.45,56.21-.49,5-.94,9.95-1.05,14.93-.06,3.18.28,6-4.3,5.89-4.22-.12-7.32-1.33-7.26-6.17.14-10.95-.08-21.95.75-32.86.86-11.26,3.09-22.41,4.19-33.66,2.07-21.18-4-40.68-12.39-59.86a353,353,0,0,1-13.76-38.4c-1.59-5.19-.9-11.08-1.31-17.54L406,126.35c0,9.59-.76,18.91.23,28,.84,7.82,3.65,15.43,5.7,23.11C412.16,178.29,413.16,178.89,413.79,179.59Z"/><path d="M122.79,195.54c6.3-12.07,11.64-24.63,13.11-38.19,1.07-10,.21-20.18.21-30.75l15.57-3.43c2.37,6.39,1.62,12.77-.22,18.69-3.55,11.4-6.85,23.09-12.17,33.69-14.06,28-16.55,56.86-11,87.4,2.51,13.75,1.81,28.12,2,42.21.08,5.19-4.1,7.53-9,5.91a3.85,3.85,0,0,1-2.24-2.62c-1.46-16.89-3.06-33.78-4-50.7a154.93,154.93,0,0,1,7.83-59.95,8.51,8.51,0,0,0,.1-2.43Z"/><path d="M427,184.93c-.35-1.69-.71-3.38-1.06-5.07-4.77-15.74-5.31-31.89-4.61-48.16.13-3.12,1.23-4.78,4.53-5.1,1.63-.16,3.17-1.22,4.76-1.89l-.07.06c2.46-.32,4.91-.62,8.08-1v15c0,19.73,0,39.45-.06,59.18,0,1.75-1,3.51-1.6,5.26l.17.09Z"/><path d="M109.34,198.11l-5,4.44V123.44l16.37,4.37c1.27,22.59.9,45-9.87,66a42.69,42.69,0,0,0-1.73,4.5Z"/><path d="M146.34,273.23l22,17.44c-.45.78-.56,1.25-.77,1.29-10,2.34-16.44,9.23-22.3,17.06-2.12,2.83-1.59,3.82,1.49,4.81a73.44,73.44,0,0,1,7.41,3.26l-.42,1.18h-22l-.55-1.29c2.52-1.11,5.07-2.16,7.53-3.37a4.92,4.92,0,0,0,2.24-2c.17-.39-.86-1.52-1.54-2.07-7.24-5.82-7.61-6.88-1.41-13.83,4.55-5.09,7.14-10.6,7.25-17.39A29.7,29.7,0,0,1,146.34,273.23Z"/><path d="M411,318.39H389.25l-.51-1.23a73.58,73.58,0,0,1,7.58-3.45c3-1,3.46-2.28,1.22-4.5-.23-.24-.56-.4-.74-.66-5.5-8.2-12.16-14.88-24.11-16.58l23.15-18.3c.67.83,1,1.06,1,1.31A33.51,33.51,0,0,0,407,298.55c3.39,3.34,2.11,6.52-1.36,9.25-5.22,4.11-5.16,4.12,1.23,6.8a44.68,44.68,0,0,1,4.57,2.56Z"/><path d="M378,122c2.33,3.12,5.07,6.23,7.09,9.75.77,1.34.49,4-.38,5.39-2.08,3.36-5.51,6-7,9.56s-1.4,7.72-2.16,12.7l-20-15.66C367.77,140.13,376,133.32,378,122Z"/><path d="M165.93,120.07c3.33,11.16,10.61,18.21,22.88,21.27l-19.65,15.59a9.65,9.65,0,0,1-.94-2.4,25,25,0,0,0-7.81-18.22c-3.35-3.32-2.65-6.18.91-9.21C163.31,125.42,164.33,122.61,165.93,120.07Z"/><path d="M279.83,153.13h-15.4c1-5.9,1.66-12,3.09-17.84.34-1.4,3.1-3,4.81-3a5.44,5.44,0,0,1,4.15,3.18C277.92,141.15,278.74,147,279.83,153.13Z"/></g></g></svg>