<svg xmlns="http://www.w3.org/2000/svg" viewBox="0 0 425.46 426.48"><g id="Layer_2" data-name="Layer 2"><g id="_ÎÓÈ_1" data-name="—ÎÓÈ 1"><path d="M212.91,426.48C95.17,426.47.23,331.45,0,213.4A212.8,212.8,0,0,1,212.56,0c117.87-.25,213.09,95.48,212.9,214.06C425.28,331.29,330,426.48,212.91,426.48ZM165.53,252.74c-45.77-31.86-48-91.87-17.37-127.18a85.09,85.09,0,0,1,118.79-10c17.58,14.54,28.07,33.41,30.29,56.12,3.31,33.94-10,60.81-37.4,81.06,45,16.4,75.71,46.62,93.08,90.68,63.29-65.2,74.12-183-1.87-262.8C274.32,0,145.89,1.53,71.24,83.91c-73.91,81.55-59.62,197.37,1.35,259.38C89.94,299.22,120.74,269,165.53,252.74Zm45.8,13.75c-1.76.11-5.24.32-8.72.57-51.18,3.58-96.72,39.91-111.74,89-1,3.2-.56,4.94,2.12,7.11,68.65,55.65,168.72,56.08,238.24,1.09,3.84-3.05,4.32-5.55,2.83-10C316.45,302,268.05,266.77,211.33,266.49ZM148.89,181c-.09,35.28,28.38,64.12,63.44,64.27A64,64,0,1,0,148.89,181Z"/></g></g></svg>